# xmcd
#
# Track frame offsets: 
#        153
#        33702
#        66117
#        98111
#        121858
#        141967
#        175306
#        202011
#        239347
#        256922
#
# Disc length: 3997 seconds
#
# Revision: 2
# Processed by: cddbd v1.5.2PL0 Copyright (c) Steve Scherf et al.
# Submitted via: ExactAudioCopy v0.99pb5
#
DISCID=900f9b0a
DTITLE=Ka Ma Quartet - Duck On Ice, Flying Cow
DYEAR=2013
DGENRE=Jazz
TTITLE0=Wish
TTITLE1=Potter's magic tricks
TTITLE2=Open road
TTITLE3=No 9
TTITLE4=Blowball
TTITLE5=Shaping sounds
TTITLE6=Duck on ice, flying cow
TTITLE7=Poetry of the dark season
TTITLE8=Soul dance
TTITLE9=Spring thing
EXTD=YEAR: 2013
EXTT0=
EXTT1=
EXTT2=
EXTT3=
EXTT4=
EXTT5=
EXTT6=
EXTT7=
EXTT8=
EXTT9=
PLAYORDER=
